<?xml version="1.0" standalone="no"?>
<!DOCTYPE svg PUBLIC "-//W3C//DTD SVG 20010904//EN"
 "http://www.w3.org/TR/2001/REC-SVG-20010904/DTD/svg10.dtd">
<svg version="1.0" xmlns="http://www.w3.org/2000/svg"
 width="234.000000pt" height="233.000000pt" viewBox="0 0 234.000000 233.000000"
 preserveAspectRatio="xMidYMid meet">

<g transform="translate(0.000000,233.000000) scale(0.100000,-0.100000)"
fill="#000000" stroke="none">
<path d="M1030 2289 c-227 -34 -383 -177 -452 -414 -20 -69 -23 -101 -22 -235
1 -137 4 -165 28 -243 47 -157 99 -243 237 -391 68 -73 76 -86 82 -131 16
-132 18 -193 8 -231 l-11 -41 -113 -28 c-365 -90 -617 -221 -742 -386 -42 -56
-45 -65 -45 -120 l0 -59 1171 0 1170 0 -33 62 c-40 75 -167 207 -257 268 -130
87 -304 160 -571 239 -40 12 -53 81 -40 210 5 58 10 111 10 118 0 8 36 52 80
98 46 48 80 92 80 104 0 11 20 69 44 128 162 397 153 717 -25 892 -125 123
-385 193 -599 160z m604 -729 c-6 -108 -15 -175 -45 -342 l-21 -118 -119 -119
c-136 -137 -232 -211 -275 -211 -41 0 -138 76 -276 215 l-115 116 -22 114
c-51 271 0 555 106 596 23 8 40 -2 173 -101 81 -60 150 -110 154 -110 3 0 6
14 6 30 0 17 2 30 4 30 2 0 34 -13 71 -30 80 -36 89 -37 82 -7 -3 12 -9 39
-13 60 l-6 38 35 -6 c33 -7 35 -5 47 29 10 33 9 44 -14 101 -14 36 -26 69 -26
73 0 4 59 -54 130 -128 l130 -135 -6 -95z m-235 -765 c-16 -133 9 -233 66
-271 38 -25 65 -76 65 -124 0 -38 -6 -48 -47 -90 -141 -140 -475 -140 -615 0
-43 42 -48 52 -48 91 0 48 26 101 59 118 59 32 84 124 72 262 -4 46 -6 86 -4
88 1 2 25 -14 51 -36 75 -64 143 -103 177 -103 35 0 106 42 179 106 28 24 51
42 52 41 1 -1 -2 -38 -7 -82z"/>
</g>
</svg>
