<?xml version="1.0" standalone="no"?>
<!DOCTYPE svg PUBLIC "-//W3C//DTD SVG 20010904//EN"
 "http://www.w3.org/TR/2001/REC-SVG-20010904/DTD/svg10.dtd">
<svg version="1.0" xmlns="http://www.w3.org/2000/svg"
 width="247.000000pt" height="249.000000pt" viewBox="0 0 247.000000 249.000000"
 preserveAspectRatio="xMidYMid meet">

<g transform="translate(0.000000,249.000000) scale(0.100000,-0.100000)"
fill="#000000" stroke="none">
<path d="M913 2306 c-123 -30 -242 -117 -307 -225 -47 -76 -92 -215 -107 -326
-12 -97 -8 -404 7 -442 5 -12 65 -64 134 -116 69 -52 160 -130 202 -174 72
-73 79 -82 89 -138 15 -79 17 -235 3 -258 -8 -14 -53 -30 -160 -57 -306 -78
-528 -190 -660 -332 -59 -64 -114 -162 -114 -203 l0 -25 1174 0 c745 0 1177 4
1181 10 16 25 -92 179 -173 248 -149 125 -373 236 -600 296 -76 20 -89 27
-101 52 -17 34 -18 165 -2 264 10 61 14 67 83 138 40 41 132 118 205 173 72
54 134 102 137 107 3 5 10 68 16 141 34 396 -77 702 -296 818 -86 46 -162 63
-278 63 -78 0 -103 -3 -118 -17 -17 -15 -19 -15 -36 0 -15 14 -39 17 -123 16
-57 0 -127 -6 -156 -13z m753 -603 c10 -40 -12 -274 -41 -442 -25 -143 -25
-143 -73 -199 -64 -75 -243 -236 -299 -269 l-46 -27 -43 24 c-52 27 -240 194
-305 271 -55 65 -68 115 -99 386 -21 179 -25 265 -13 276 3 4 210 7 459 7
l454 0 6 -27z m-619 -878 c92 -76 144 -100 184 -86 35 12 75 39 145 98 28 24
54 43 58 43 4 0 5 -13 1 -29 -3 -16 -7 -72 -7 -123 0 -109 12 -147 67 -198
118 -111 75 -224 -111 -292 -85 -32 -273 -32 -358 0 -115 42 -176 101 -176
170 0 43 19 78 69 126 22 22 46 56 53 75 13 37 15 214 3 251 -4 11 -4 20 0 20
3 0 36 -25 72 -55z"/>
</g>
</svg>
